<svg xmlns="http://www.w3.org/2000/svg" width="128" height="128" xml:space="preserve"><path fill="#282D33" d="M54.631 124.214H0V52.065h4.017v68.132h50.614zM29.522 45.984h6.646v4.018h-6.646z"/><path fill="#282D33" d="M54.223 119.814h-4.017c0-2.663-2.146-4.831-4.784-4.831H8.706V45.984h8.85v4.018h-4.833v60.964h32.699c1.763 0 3.406.524 4.784 1.425V76.098h4.017v43.716z"/><path fill="#282D33" d="M17.619 56.107h18.549v4.018H17.619zM17.619 64.968h18.549v4.018H17.619zM17.619 73.688h27.209v4.018H17.619zM17.619 82.406h27.209v4.017H17.619zM17.619 91.126h27.209v4.017H17.619zM17.619 99.843h27.209v4.017H17.619z"/><g><path fill="#282D33" d="M91.305 119.68h-4.017v-15.73h18.207c4.53 0 8.218-3.722 8.218-8.298V78.561h7.354l-10.828-18.895.024-.58c.024-.546.043-1.093.043-1.643 0-19.961-16.115-36.201-35.924-36.201A35.472 35.472 0 0 0 53.5 27.987l-2.351-3.258a39.47 39.47 0 0 1 23.232-7.504c22.023 0 39.94 18.042 39.94 40.218 0 .412-.009.821-.023 1.229L128 82.577h-10.271v13.075c0 6.79-5.488 12.314-12.234 12.314h-14.19v11.714z"/></g><g><path fill="#282D33" d="M77.951 78.309c-6.575 0-12.864-2.833-17.254-7.77l3.002-2.67c3.629 4.081 8.823 6.422 14.252 6.422 10.55 0 19.134-8.653 19.134-19.289s-8.584-19.288-19.134-19.288v-4.017c12.766 0 23.15 10.454 23.15 23.305.001 12.852-10.384 23.307-23.15 23.307z"/></g><g><path fill="#282D33" d="M77.953 68.664c-7.486 0-13.576-6.128-13.576-13.66 0-7.533 6.09-13.661 13.576-13.661s13.576 6.128 13.576 13.661c0 7.532-6.09 13.66-13.576 13.66zm0-23.305c-5.271 0-9.56 4.327-9.56 9.645s4.288 9.644 9.56 9.644 9.56-4.326 9.56-9.644-4.288-9.645-9.56-9.645z"/></g><g><path fill="#282D33" d="M44.668 44.959h-4.017v-2.99c0-4.305-3.471-7.808-7.736-7.808v-4.018c6.481 0 11.753 5.305 11.753 11.825v2.991zM53.79 62.215h-4.017V18.959c0-8.366 6.762-15.173 15.075-15.173v4.017c-6.098 0-11.058 5.005-11.058 11.156v43.256z"/><path fill="#282D33" d="M47.21 72.202c-3.625 0-6.574-2.966-6.574-6.612V44.167h4.017V65.59c0 1.431 1.147 2.595 2.557 2.595 1.413 0 2.563-1.164 2.563-2.595V53.405h4.017V65.59c0 3.646-2.952 6.612-6.58 6.612zM79.659 41.446h-4.018V18.959c0-6.151-4.966-11.156-11.069-11.156V3.786c8.318 0 15.087 6.807 15.087 15.173v22.487zM25.386 50.307h-4.017v-8.338c0-6.521 5.272-11.825 11.753-11.825v4.018c-4.266 0-7.736 3.503-7.736 7.808v8.337z"/></g></svg>